<svg version="1.1" id="Layer_1" xmlns="http://www.w3.org/2000/svg" xmlns:xlink="http://www.w3.org/1999/xlink" x="0px" y="0px"
	 width="100%" viewBox="0 0 512 512" enable-background="new 0 0 512 512" xml:space="preserve">
<path fill="#FEFEFE" opacity="1.000000" stroke="none" 
	d="
M350.000000,513.000000 
	C233.361679,513.000000 117.223351,513.000000 1.042510,513.000000 
	C1.042510,342.403320 1.042510,171.806625 1.042510,1.104965 
	C171.554993,1.104965 342.110077,1.104965 512.832581,1.104965 
	C512.832581,171.666534 512.832581,342.333252 512.832581,513.000000 
	C458.806549,513.000000 404.653290,513.000000 350.000000,513.000000 
M31.998272,332.706818 
	C32.027107,340.703613 31.717638,348.718933 32.155029,356.693329 
	C33.072491,373.420105 43.955593,384.885529 60.574139,386.989990 
	C64.361259,387.469574 68.209358,387.658264 72.029465,387.659241 
	C203.833572,387.692383 335.637695,387.686859 467.441803,387.686432 
	C468.774841,387.686432 470.108948,387.714172 471.440704,387.671326 
	C479.233948,387.420532 481.893799,384.764618 481.820343,376.905945 
	C481.686462,362.581543 481.307281,348.258820 481.250641,333.934540 
	C481.219025,325.944153 481.759308,317.952698 481.803680,309.960419 
	C481.841980,303.061401 479.029938,300.374359 472.074738,300.134674 
	C470.909668,300.094513 469.742126,300.124969 468.575714,300.124969 
	C335.771820,300.124756 202.967911,300.124603 70.164017,300.126312 
	C68.497879,300.126312 66.829094,300.093719 65.166016,300.171814 
	C45.123875,301.112274 33.698364,312.019531 31.998272,332.706818 
M319.841644,272.217377 
	C325.604858,271.437775 331.426147,270.951996 337.121185,269.827209 
	C360.781677,265.154327 376.137756,251.593430 381.739014,227.685989 
	C384.882507,214.268860 385.698334,200.684799 384.632904,187.013565 
	C383.788696,176.180435 381.758057,165.541122 376.430298,155.868393 
	C366.336060,137.541992 349.169617,130.112289 329.809357,128.387192 
	C309.632690,126.589340 289.257050,127.014023 268.966858,126.533379 
	C268.017609,126.510895 267.053070,127.135658 265.319580,127.721069 
	C266.590424,128.561600 267.038971,129.020538 267.578644,129.191269 
	C278.950043,132.788498 278.979340,132.811020 278.990204,144.795715 
	C279.027252,185.587463 279.059631,226.379211 279.093475,267.170959 
	C279.094971,268.950348 279.093658,270.729736 279.093658,272.294769 
	C292.719391,272.294769 305.822937,272.294769 319.841644,272.217377 
M70.978783,172.500000 
	C70.978783,157.244278 70.978783,141.988556 70.978783,126.827782 
	C56.849892,125.131355 34.056873,126.110146 32.361012,128.371582 
	C45.016434,132.690659 45.068207,132.690567 45.093773,146.599045 
	C45.144016,173.930893 45.054165,201.263153 45.166771,228.594650 
	C45.263416,252.051956 55.226109,265.749207 77.304558,270.265167 
	C87.391037,272.328217 98.247520,272.670502 108.489342,271.490143 
	C127.742569,269.271240 135.726685,260.716797 139.112671,241.531616 
	C139.918488,236.965866 140.317688,232.270172 140.332626,227.632401 
	C140.435715,195.634201 140.387344,163.635529 140.387680,131.637009 
	C140.387695,130.017380 140.387680,128.397736 140.387680,126.677765 
	C134.251175,126.677765 128.690903,126.677765 122.839828,126.677765 
	C122.839828,128.826324 122.839844,130.646896 122.839836,132.467484 
	C122.839729,164.299347 122.878365,196.131287 122.799255,227.962952 
	C122.786865,232.947281 122.534798,237.970352 121.866150,242.904007 
	C120.984093,249.412201 118.245018,255.006149 112.184288,258.401703 
	C92.322220,269.529449 71.678314,258.052887 70.989250,235.495987 
	C70.953629,234.330154 70.936897,233.163239 70.937569,231.996857 
	C70.948830,212.497910 70.964272,192.998947 70.978783,172.500000 
M403.555359,240.499710 
	C403.555359,251.115829 403.555359,261.731934 403.555359,272.456573 
	C429.875580,272.456573 455.607544,272.456573 481.577789,272.456573 
	C481.577789,268.276093 481.577789,264.372192 481.577789,259.964417 
	C479.730621,259.964417 478.107422,259.963287 476.484192,259.964569 
	C465.990387,259.972931 455.494385,260.118774 445.003418,259.951202 
	C434.923035,259.790222 430.335754,255.737106 430.128723,246.403107 
	C429.781555,230.752060 429.829010,215.092148 429.745239,199.435791 
	C429.742035,198.832855 430.099945,198.227997 430.388947,197.307617 
	C443.249939,197.307617 456.034180,197.307617 468.988525,197.307617 
	C468.988525,193.309219 468.988525,189.681885 468.988525,185.383179 
	C455.798279,185.383179 442.754089,185.383179 429.704407,185.383179 
	C429.704407,171.740860 429.690521,158.769394 429.711182,145.797974 
	C429.719574,140.530487 432.596771,137.839188 437.666138,137.419006 
	C440.647614,137.171890 443.652252,137.134781 446.646790,137.126755 
	C458.253082,137.095657 469.859558,137.114105 481.452087,137.114105 
	C481.452087,133.203201 481.452087,129.845322 481.452087,126.245346 
	C473.399384,126.245346 465.750671,126.245346 458.101959,126.245346 
	C437.113892,126.245354 416.125732,126.226082 395.137848,126.284348 
	C393.568298,126.288704 392.000275,126.847778 390.431549,127.148987 
	C390.514374,127.636246 390.597229,128.123505 390.680054,128.610764 
	C391.942535,128.884720 393.211853,129.130676 394.466370,129.437286 
	C401.223480,131.088867 402.916077,133.071609 403.416046,140.061157 
	C403.558380,142.051529 403.549408,144.055206 403.549896,146.052811 
	C403.557556,177.201767 403.555359,208.350739 403.555359,240.499710 
M220.486191,210.925461 
	C227.364014,230.193100 234.200409,249.475800 241.196304,268.700470 
	C241.772018,270.282532 243.372940,272.593018 244.596649,272.656586 
	C251.815109,273.031586 259.062958,272.841248 267.008636,272.841248 
	C261.483521,258.228668 256.251221,244.417953 251.038834,230.599747 
	C238.417572,197.140381 225.776566,163.688400 213.245255,130.195343 
	C212.248932,127.532425 211.208893,126.141556 208.019958,126.254463 
	C200.367828,126.525375 192.699310,126.308746 185.038269,126.380669 
	C183.941803,126.390953 182.850113,126.910820 181.756210,127.194855 
	C183.082825,128.869263 184.373306,129.362854 185.696259,129.743561 
	C192.427109,131.680573 194.264618,134.728119 192.611313,141.610458 
	C192.029678,144.031662 191.224335,146.412308 190.352966,148.748764 
	C179.368896,178.200882 168.347382,207.639038 157.350357,237.086334 
	C153.005142,248.721710 148.696976,260.370911 144.102676,272.738708 
	C148.759949,272.738708 152.711472,272.520569 156.626236,272.806183 
	C159.885590,273.044006 161.200287,271.739746 162.266510,268.740967 
	C169.009033,249.777588 176.056534,230.922638 182.799774,211.959503 
	C183.857376,208.985397 185.124405,207.787872 188.392303,207.873871 
	C197.380264,208.110336 206.380966,207.848053 215.370438,208.053955 
	C216.995285,208.091187 218.590652,209.414841 220.486191,210.925461 
z"/>
<path fill="#1482C5" opacity="1.000000" stroke="none" 
	d="
M32.020622,332.237976 
	C33.698364,312.019531 45.123875,301.112274 65.166016,300.171814 
	C66.829094,300.093719 68.497879,300.126312 70.164017,300.126312 
	C202.967911,300.124603 335.771820,300.124756 468.575714,300.124969 
	C469.742126,300.124969 470.909668,300.094513 472.074738,300.134674 
	C479.029938,300.374359 481.841980,303.061401 481.803680,309.960419 
	C481.759308,317.952698 481.219025,325.944153 481.250641,333.934540 
	C481.307281,348.258820 481.686462,362.581543 481.820343,376.905945 
	C481.893799,384.764618 479.233948,387.420532 471.440704,387.671326 
	C470.108948,387.714172 468.774841,387.686432 467.441803,387.686432 
	C335.637695,387.686859 203.833572,387.692383 72.029465,387.659241 
	C68.209358,387.658264 64.361259,387.469574 60.574139,386.989990 
	C43.955593,384.885529 33.072491,373.420105 32.155029,356.693329 
	C31.717638,348.718933 32.027107,340.703613 32.020622,332.237976 
M316.613953,344.219543 
	C318.484985,340.689789 320.356018,337.160004 322.227051,333.630249 
	C322.632812,333.755615 323.038605,333.880951 323.444366,334.006317 
	C323.444366,343.229767 323.444366,352.453217 323.444366,361.538086 
	C325.891418,361.538086 327.778015,361.538086 329.706909,361.538086 
	C329.706909,348.369873 329.706909,335.627686 329.706909,322.939789 
	C320.212341,321.127838 319.927124,321.255005 316.093567,329.226074 
	C313.369110,334.890961 310.671844,340.568939 307.611542,346.975830 
	C303.801331,339.139191 300.282410,332.184021 297.026672,325.107758 
	C294.799225,320.266449 290.689941,322.718475 287.408600,322.595367 
	C286.724792,322.569702 285.323303,325.754944 285.272919,327.490112 
	C285.041046,335.469696 285.170776,343.459839 285.170746,351.446167 
	C285.170746,354.849548 285.170746,358.252930 285.170746,361.539429 
	C287.950287,361.539429 289.835968,361.539429 292.308655,361.539429 
	C292.308655,352.019989 292.308655,342.917511 292.308655,333.815033 
	C296.844177,341.152863 300.502930,348.607819 304.355591,355.961212 
	C304.949554,357.094849 306.422821,358.434875 307.510437,358.453522 
	C308.579376,358.471863 310.064209,357.146973 310.687439,356.031891 
	C312.713287,352.407379 314.428162,348.609039 316.613953,344.219543 
M79.192307,361.947205 
	C80.330788,360.553009 81.974892,359.331665 82.520683,357.734894 
	C84.946762,350.637146 87.058243,343.431885 89.283470,336.265503 
	C92.628609,343.677307 94.729256,351.159607 97.305443,358.474396 
	C97.828514,359.959595 100.144241,361.707916 101.634247,361.708557 
	C103.148041,361.709229 105.487427,360.008057 106.044495,358.520233 
	C109.951767,348.084778 113.501625,337.515198 117.135612,326.978088 
	C117.593727,325.649719 117.875885,324.260681 118.236473,322.911316 
	C113.475159,321.382385 111.061302,322.520905 109.704712,327.155273 
	C107.477211,334.764801 104.548424,342.169067 101.565819,350.654266 
	C98.838188,341.771515 96.590393,333.937653 93.939369,326.242706 
	C93.395737,324.664734 91.549614,322.965118 89.941154,322.446533 
	C86.869659,321.456146 86.209702,324.058624 85.504074,326.408020 
	C83.782631,332.139587 81.967545,337.844879 80.067772,343.519806 
	C79.559898,345.036896 78.611618,346.406586 77.393585,348.753113 
	C74.598717,340.854279 72.194550,334.135773 69.845665,327.397980 
	C67.834412,321.628662 67.334175,321.356140 61.055412,323.270996 
	C65.295715,335.331299 69.436485,347.417938 73.913231,359.378815 
	C74.378136,360.620911 76.838264,361.116211 79.192307,361.947205 
M178.937592,322.389343 
	C173.349380,322.389343 167.761154,322.389343 162.291931,322.389343 
	C162.291931,335.954285 162.291931,348.811188 162.291931,361.959351 
	C167.902237,361.959351 173.045242,361.966797 178.188202,361.954224 
	C179.518402,361.950989 180.857529,361.971771 182.177063,361.833649 
	C190.239517,360.989502 194.938919,355.406403 192.873657,348.374603 
	C192.065689,345.623596 189.552551,343.373383 187.981979,341.131958 
	C188.990234,338.884003 190.625244,336.614624 190.991058,334.156403 
	C191.957703,327.660583 188.177505,323.934479 178.937592,322.389343 
M127.757751,361.964478 
	C136.173782,361.964478 144.589798,361.964478 153.095551,361.964478 
	C153.095551,359.433716 153.095551,357.699707 153.095551,355.328247 
	C145.882019,355.328247 138.996552,355.328247 132.079544,355.328247 
	C132.079544,351.610687 132.079544,348.539978 132.079544,344.999146 
	C138.319366,344.999146 144.244354,344.999146 150.274963,344.999146 
	C150.274963,342.806274 150.274963,341.100677 150.274963,338.889465 
	C143.967651,338.889465 138.046707,338.889465 132.119385,338.889465 
	C132.119385,335.316742 132.119385,332.259338 132.119385,328.749268 
	C139.073883,328.749268 145.665833,328.749268 152.306442,328.749268 
	C152.306442,326.416260 152.306442,324.556549 152.306442,322.704102 
	C142.971741,322.704102 134.082779,322.704102 124.840370,322.704102 
	C124.840370,335.096283 124.795113,347.075104 124.925705,359.052032 
	C124.936241,360.017548 126.155083,360.969910 127.757751,361.964478 
M340.827637,350.479980 
	C340.827637,354.216461 340.827637,357.952942 340.827637,361.738739 
	C343.476929,361.738739 345.257355,361.738739 347.735901,361.738739 
	C347.735901,357.986420 347.735901,354.447784 347.735901,350.981781 
	C352.873688,350.522003 357.379364,350.475220 361.735504,349.644287 
	C368.046204,348.440552 371.187927,344.306244 371.637512,337.656342 
	C372.100861,330.803619 369.669708,325.185486 364.103424,324.047485 
	C356.644043,322.522491 348.891357,322.432343 340.827515,321.685638 
	C340.827515,331.920959 340.827515,340.704071 340.827637,350.479980 
M251.769363,330.223022 
	C247.210526,340.579895 242.651703,350.936798 238.092865,361.293701 
	C238.535294,361.811493 238.977722,362.329285 239.420151,362.847076 
	C241.655746,361.734680 245.406387,361.047882 245.859558,359.434753 
	C247.638412,353.102692 251.768173,352.309021 257.196411,352.928864 
	C259.329437,353.172424 261.546600,353.208679 263.667023,352.915955 
	C267.420685,352.397736 269.701111,353.768829 270.605682,357.440033 
	C271.749451,362.082123 274.772095,362.804871 279.499481,361.263702 
	C273.978180,348.700134 268.554108,336.268463 262.987213,323.901093 
	C262.634430,323.117310 261.227142,322.597992 260.214661,322.355865 
	C254.202637,320.918091 253.860382,326.082977 251.769363,330.223022 
M444.973419,341.407745 
	C440.743073,339.952179 436.338043,338.849579 432.361420,336.881348 
	C430.567566,335.993500 429.627289,333.381073 428.299774,331.551056 
	C430.071075,330.321899 431.857819,328.048553 433.610474,328.074524 
	C437.619598,328.134033 441.612061,329.317474 446.223846,330.155792 
	C446.768219,329.321930 447.721527,327.861572 448.906677,326.046112 
	C442.985107,321.774902 436.840057,320.659210 430.218384,322.062256 
	C424.915955,323.185822 421.550507,327.015778 421.116730,331.974365 
	C420.661682,337.176056 423.060883,341.054718 428.440033,343.127319 
	C431.682220,344.376556 435.334198,344.721558 438.362061,346.310974 
	C440.332367,347.345245 441.511383,349.886871 443.044922,351.753174 
	C440.893616,353.180206 438.617371,355.947418 436.616577,355.760834 
	C432.180786,355.347229 427.883209,353.451202 422.930756,351.982117 
	C422.265076,352.797211 421.045807,354.290070 419.851166,355.752808 
	C425.853027,361.619873 434.400024,363.843414 441.703247,361.603485 
	C445.983032,360.290802 449.129944,357.670166 449.919983,353.126831 
	C450.701813,348.630676 449.987427,344.459076 444.973419,341.407745 
M378.938446,340.455627 
	C379.182037,343.925140 378.974945,347.500702 379.761108,350.842560 
	C381.505402,358.257263 387.468140,362.256989 395.824005,362.217010 
	C404.041229,362.177704 410.764679,357.985413 411.533661,350.518890 
	C412.475311,341.375854 411.757996,332.061951 411.757996,322.666931 
	C409.955994,322.666931 408.072754,322.666931 405.824188,322.666931 
	C405.824188,326.815613 405.856354,330.618500 405.815460,334.420624 
	C405.770844,338.572693 406.020996,342.771057 405.490295,346.864685 
	C404.708221,352.896942 400.431000,356.321808 394.973572,355.966888 
	C389.755676,355.627594 386.270782,351.837463 385.896301,345.917236 
	C385.739105,343.432312 385.829956,340.930969 385.826538,338.437103 
	C385.819336,333.194763 385.824371,327.952393 385.824371,322.701050 
	C383.115997,322.701050 381.220215,322.701050 378.938385,322.701050 
	C378.938385,328.543976 378.938385,334.006653 378.938446,340.455627 
M207.149078,358.463562 
	C217.213043,364.767487 228.632538,363.424896 234.836044,355.107330 
	C233.687668,353.761749 232.527420,352.402283 231.482101,351.177460 
	C221.338104,357.196136 215.054214,357.129578 209.830490,351.315277 
	C205.456360,346.446625 204.978775,338.926300 208.716049,333.766235 
	C213.399628,327.299591 220.191208,326.827728 232.070923,332.284454 
	C233.183350,331.041931 234.350677,329.738068 235.478531,328.478302 
	C228.085144,319.617218 213.776764,319.092804 205.405960,327.086090 
	C196.521378,335.569977 197.025681,348.965057 207.149078,358.463562 
z"/>
<path fill="#1E1B1F" opacity="1.000000" stroke="none" 
	d="
M319.384064,272.256073 
	C305.822937,272.294769 292.719391,272.294769 279.093658,272.294769 
	C279.093658,270.729736 279.094971,268.950348 279.093475,267.170959 
	C279.059631,226.379211 279.027252,185.587463 278.990204,144.795715 
	C278.979340,132.811020 278.950043,132.788498 267.578644,129.191269 
	C267.038971,129.020538 266.590424,128.561600 265.319580,127.721069 
	C267.053070,127.135658 268.017609,126.510895 268.966858,126.533379 
	C289.257050,127.014023 309.632690,126.589340 329.809357,128.387192 
	C349.169617,130.112289 366.336060,137.541992 376.430298,155.868393 
	C381.758057,165.541122 383.788696,176.180435 384.632904,187.013565 
	C385.698334,200.684799 384.882507,214.268860 381.739014,227.685989 
	C376.137756,251.593430 360.781677,265.154327 337.121185,269.827209 
	C331.426147,270.951996 325.604858,271.437775 319.384064,272.256073 
M355.200073,227.626923 
	C360.606293,208.279114 360.670624,188.748260 356.051361,169.358185 
	C350.509644,146.095871 334.362061,134.956665 310.497345,136.767456 
	C306.917542,137.039078 305.719025,138.205093 305.731384,141.903381 
	C305.859558,180.386887 305.860596,218.871170 305.722870,257.354614 
	C305.710724,260.742035 307.128082,261.741669 309.961426,261.993103 
	C325.896698,263.407166 342.856659,257.225769 350.347504,240.501633 
	C352.112000,236.562256 353.488403,232.449020 355.200073,227.626923 
z"/>
<path fill="#1E1B1F" opacity="1.000000" stroke="none" 
	d="
M70.978783,173.000000 
	C70.964272,192.998947 70.948830,212.497910 70.937569,231.996857 
	C70.936897,233.163239 70.953629,234.330154 70.989250,235.495987 
	C71.678314,258.052887 92.322220,269.529449 112.184288,258.401703 
	C118.245018,255.006149 120.984093,249.412201 121.866150,242.904007 
	C122.534798,237.970352 122.786865,232.947281 122.799255,227.962952 
	C122.878365,196.131287 122.839729,164.299347 122.839836,132.467484 
	C122.839844,130.646896 122.839828,128.826324 122.839828,126.677765 
	C128.690903,126.677765 134.251175,126.677765 140.387680,126.677765 
	C140.387680,128.397736 140.387695,130.017380 140.387680,131.637009 
	C140.387344,163.635529 140.435715,195.634201 140.332626,227.632401 
	C140.317688,232.270172 139.918488,236.965866 139.112671,241.531616 
	C135.726685,260.716797 127.742569,269.271240 108.489342,271.490143 
	C98.247520,272.670502 87.391037,272.328217 77.304558,270.265167 
	C55.226109,265.749207 45.263416,252.051956 45.166771,228.594650 
	C45.054165,201.263153 45.144016,173.930893 45.093773,146.599045 
	C45.068207,132.690567 45.016434,132.690659 32.361012,128.371582 
	C34.056873,126.110146 56.849892,125.131355 70.978783,126.827782 
	C70.978783,141.988556 70.978783,157.244278 70.978783,173.000000 
z"/>
<path fill="#1E1B1F" opacity="1.000000" stroke="none" 
	d="
M403.555389,239.999695 
	C403.555359,208.350739 403.557556,177.201767 403.549896,146.052811 
	C403.549408,144.055206 403.558380,142.051529 403.416046,140.061157 
	C402.916077,133.071609 401.223480,131.088867 394.466370,129.437286 
	C393.211853,129.130676 391.942535,128.884720 390.680054,128.610764 
	C390.597229,128.123505 390.514374,127.636246 390.431549,127.148987 
	C392.000275,126.847778 393.568298,126.288704 395.137848,126.284348 
	C416.125732,126.226082 437.113892,126.245354 458.101959,126.245346 
	C465.750671,126.245346 473.399384,126.245346 481.452087,126.245346 
	C481.452087,129.845322 481.452087,133.203201 481.452087,137.114105 
	C469.859558,137.114105 458.253082,137.095657 446.646790,137.126755 
	C443.652252,137.134781 440.647614,137.171890 437.666138,137.419006 
	C432.596771,137.839188 429.719574,140.530487 429.711182,145.797974 
	C429.690521,158.769394 429.704407,171.740860 429.704407,185.383179 
	C442.754089,185.383179 455.798279,185.383179 468.988525,185.383179 
	C468.988525,189.681885 468.988525,193.309219 468.988525,197.307617 
	C456.034180,197.307617 443.249939,197.307617 430.388947,197.307617 
	C430.099945,198.227997 429.742035,198.832855 429.745239,199.435791 
	C429.829010,215.092148 429.781555,230.752060 430.128723,246.403107 
	C430.335754,255.737106 434.923035,259.790222 445.003418,259.951202 
	C455.494385,260.118774 465.990387,259.972931 476.484192,259.964569 
	C478.107422,259.963287 479.730621,259.964417 481.577789,259.964417 
	C481.577789,264.372192 481.577789,268.276093 481.577789,272.456573 
	C455.607544,272.456573 429.875580,272.456573 403.555359,272.456573 
	C403.555359,261.731934 403.555359,251.115829 403.555389,239.999695 
z"/>
<path fill="#201D21" opacity="1.000000" stroke="none" 
	d="
M220.342911,210.535019 
	C218.590652,209.414841 216.995285,208.091187 215.370438,208.053955 
	C206.380966,207.848053 197.380264,208.110336 188.392303,207.873871 
	C185.124405,207.787872 183.857376,208.985397 182.799774,211.959503 
	C176.056534,230.922638 169.009033,249.777588 162.266510,268.740967 
	C161.200287,271.739746 159.885590,273.044006 156.626236,272.806183 
	C152.711472,272.520569 148.759949,272.738708 144.102676,272.738708 
	C148.696976,260.370911 153.005142,248.721710 157.350357,237.086334 
	C168.347382,207.639038 179.368896,178.200882 190.352966,148.748764 
	C191.224335,146.412308 192.029678,144.031662 192.611313,141.610458 
	C194.264618,134.728119 192.427109,131.680573 185.696259,129.743561 
	C184.373306,129.362854 183.082825,128.869263 181.756210,127.194855 
	C182.850113,126.910820 183.941803,126.390953 185.038269,126.380669 
	C192.699310,126.308746 200.367828,126.525375 208.019958,126.254463 
	C211.208893,126.141556 212.248932,127.532425 213.245255,130.195343 
	C225.776566,163.688400 238.417572,197.140381 251.038834,230.599747 
	C256.251221,244.417953 261.483521,258.228668 267.008636,272.841248 
	C259.062958,272.841248 251.815109,273.031586 244.596649,272.656586 
	C243.372940,272.593018 241.772018,270.282532 241.196304,268.700470 
	C234.200409,249.475800 227.364014,230.193100 220.342911,210.535019 
M207.944519,175.564117 
	C205.822815,170.083435 203.701111,164.602753 201.053207,157.762863 
	C196.079010,171.656921 191.590317,184.194824 186.972336,197.093842 
	C196.942841,197.093842 206.207779,197.093842 215.941650,197.093842 
	C213.270569,189.927643 210.731354,183.115234 207.944519,175.564117 
z"/>
<path fill="#EFF7FB" opacity="1.000000" stroke="none" 
	d="
M316.438354,344.548584 
	C314.428162,348.609039 312.713287,352.407379 310.687439,356.031891 
	C310.064209,357.146973 308.579376,358.471863 307.510437,358.453522 
	C306.422821,358.434875 304.949554,357.094849 304.355591,355.961212 
	C300.502930,348.607819 296.844177,341.152863 292.308655,333.815033 
	C292.308655,342.917511 292.308655,352.019989 292.308655,361.539429 
	C289.835968,361.539429 287.950287,361.539429 285.170746,361.539429 
	C285.170746,358.252930 285.170746,354.849548 285.170746,351.446167 
	C285.170776,343.459839 285.041046,335.469696 285.272919,327.490112 
	C285.323303,325.754944 286.724792,322.569702 287.408600,322.595367 
	C290.689941,322.718475 294.799225,320.266449 297.026672,325.107758 
	C300.282410,332.184021 303.801331,339.139191 307.611542,346.975830 
	C310.671844,340.568939 313.369110,334.890961 316.093567,329.226074 
	C319.927124,321.255005 320.212341,321.127838 329.706909,322.939789 
	C329.706909,335.627686 329.706909,348.369873 329.706909,361.538086 
	C327.778015,361.538086 325.891418,361.538086 323.444366,361.538086 
	C323.444366,352.453217 323.444366,343.229767 323.444366,334.006317 
	C323.038605,333.880951 322.632812,333.755615 322.227051,333.630249 
	C320.356018,337.160004 318.484985,340.689789 316.438354,344.548584 
z"/>
<path fill="#F1F8FB" opacity="1.000000" stroke="none" 
	d="
M78.782471,361.952606 
	C76.838264,361.116211 74.378136,360.620911 73.913231,359.378815 
	C69.436485,347.417938 65.295715,335.331299 61.055412,323.270996 
	C67.334175,321.356140 67.834412,321.628662 69.845665,327.397980 
	C72.194550,334.135773 74.598717,340.854279 77.393585,348.753113 
	C78.611618,346.406586 79.559898,345.036896 80.067772,343.519806 
	C81.967545,337.844879 83.782631,332.139587 85.504074,326.408020 
	C86.209702,324.058624 86.869659,321.456146 89.941154,322.446533 
	C91.549614,322.965118 93.395737,324.664734 93.939369,326.242706 
	C96.590393,333.937653 98.838188,341.771515 101.565819,350.654266 
	C104.548424,342.169067 107.477211,334.764801 109.704712,327.155273 
	C111.061302,322.520905 113.475159,321.382385 118.236473,322.911316 
	C117.875885,324.260681 117.593727,325.649719 117.135612,326.978088 
	C113.501625,337.515198 109.951767,348.084778 106.044495,358.520233 
	C105.487427,360.008057 103.148041,361.709229 101.634247,361.708557 
	C100.144241,361.707916 97.828514,359.959595 97.305443,358.474396 
	C94.729256,351.159607 92.628609,343.677307 89.283470,336.265503 
	C87.058243,343.431885 84.946762,350.637146 82.520683,357.734894 
	C81.974892,359.331665 80.330788,360.553009 78.782471,361.952606 
z"/>
<path fill="#F1F7FB" opacity="1.000000" stroke="none" 
	d="
M179.373917,322.425049 
	C188.177505,323.934479 191.957703,327.660583 190.991058,334.156403 
	C190.625244,336.614624 188.990234,338.884003 187.981979,341.131958 
	C189.552551,343.373383 192.065689,345.623596 192.873657,348.374603 
	C194.938919,355.406403 190.239517,360.989502 182.177063,361.833649 
	C180.857529,361.971771 179.518402,361.950989 178.188202,361.954224 
	C173.045242,361.966797 167.902237,361.959351 162.291931,361.959351 
	C162.291931,348.811188 162.291931,335.954285 162.291931,322.389343 
	C167.761154,322.389343 173.349380,322.389343 179.373917,322.425049 
M168.720993,346.641815 
	C168.720993,349.550079 168.720993,352.458344 168.720993,355.497620 
	C173.470123,355.497620 177.647552,355.982452 181.613937,355.278381 
	C183.403961,354.960632 186.170074,352.103424 185.998138,350.705170 
	C185.756317,348.738403 183.395111,345.800568 181.581390,345.508820 
	C177.490219,344.850677 173.178772,345.561615 168.720993,346.641815 
M180.721542,329.166779 
	C176.839478,329.166779 172.957397,329.166779 169.056778,329.166779 
	C169.056778,332.466766 169.056778,335.486145 169.056778,338.781708 
	C172.542648,338.781708 175.718933,339.178375 178.725021,338.634460 
	C180.558456,338.302704 183.168259,336.789093 183.543945,335.323120 
	C183.969147,333.663940 182.284424,331.464050 180.721542,329.166779 
z"/>
<path fill="#EEF6FB" opacity="1.000000" stroke="none" 
	d="
M127.285095,361.946411 
	C126.155083,360.969910 124.936241,360.017548 124.925705,359.052032 
	C124.795113,347.075104 124.840370,335.096283 124.840370,322.704102 
	C134.082779,322.704102 142.971741,322.704102 152.306442,322.704102 
	C152.306442,324.556549 152.306442,326.416260 152.306442,328.749268 
	C145.665833,328.749268 139.073883,328.749268 132.119385,328.749268 
	C132.119385,332.259338 132.119385,335.316742 132.119385,338.889465 
	C138.046707,338.889465 143.967651,338.889465 150.274963,338.889465 
	C150.274963,341.100677 150.274963,342.806274 150.274963,344.999146 
	C144.244354,344.999146 138.319366,344.999146 132.079544,344.999146 
	C132.079544,348.539978 132.079544,351.610687 132.079544,355.328247 
	C138.996552,355.328247 145.882019,355.328247 153.095551,355.328247 
	C153.095551,357.699707 153.095551,359.433716 153.095551,361.964478 
	C144.589798,361.964478 136.173782,361.964478 127.285095,361.946411 
z"/>
<path fill="#EEF6FB" opacity="1.000000" stroke="none" 
	d="
M340.827576,349.983582 
	C340.827515,340.704071 340.827515,331.920959 340.827515,321.685638 
	C348.891357,322.432343 356.644043,322.522491 364.103424,324.047485 
	C369.669708,325.185486 372.100861,330.803619 371.637512,337.656342 
	C371.187927,344.306244 368.046204,348.440552 361.735504,349.644287 
	C357.379364,350.475220 352.873688,350.522003 347.735901,350.981781 
	C347.735901,354.447784 347.735901,357.986420 347.735901,361.738739 
	C345.257355,361.738739 343.476929,361.738739 340.827637,361.738739 
	C340.827637,357.952942 340.827637,354.216461 340.827576,349.983582 
M357.037811,344.067535 
	C361.820099,343.924408 364.367157,341.387909 364.649628,336.689697 
	C364.872345,332.984924 363.441742,329.929504 359.579102,329.277924 
	C355.799713,328.640381 351.887817,328.788605 348.009979,328.590729 
	C348.009979,334.226837 348.009979,338.943237 348.009979,344.092865 
	C350.916168,344.092865 353.528931,344.092865 357.037811,344.067535 
z"/>
<path fill="#F2F8FC" opacity="1.000000" stroke="none" 
	d="
M251.902954,329.867188 
	C253.860382,326.082977 254.202637,320.918091 260.214661,322.355865 
	C261.227142,322.597992 262.634430,323.117310 262.987213,323.901093 
	C268.554108,336.268463 273.978180,348.700134 279.499481,361.263702 
	C274.772095,362.804871 271.749451,362.082123 270.605682,357.440033 
	C269.701111,353.768829 267.420685,352.397736 263.667023,352.915955 
	C261.546600,353.208679 259.329437,353.172424 257.196411,352.928864 
	C251.768173,352.309021 247.638412,353.102692 245.859558,359.434753 
	C245.406387,361.047882 241.655746,361.734680 239.420151,362.847076 
	C238.977722,362.329285 238.535294,361.811493 238.092865,361.293701 
	C242.651703,350.936798 247.210526,340.579895 251.902954,329.867188 
M254.624359,340.128113 
	C253.734421,342.188507 252.844498,344.248901 251.881134,346.479309 
	C256.764130,346.479309 261.055969,346.479309 265.940399,346.479309 
	C263.550629,341.226776 261.413330,336.529236 258.781189,330.743958 
	C257.144806,334.419037 256.031342,336.919769 254.624359,340.128113 
z"/>
<path fill="#F2F8FC" opacity="1.000000" stroke="none" 
	d="
M445.295715,341.605103 
	C449.987427,344.459076 450.701813,348.630676 449.919983,353.126831 
	C449.129944,357.670166 445.983032,360.290802 441.703247,361.603485 
	C434.400024,363.843414 425.853027,361.619873 419.851166,355.752808 
	C421.045807,354.290070 422.265076,352.797211 422.930756,351.982117 
	C427.883209,353.451202 432.180786,355.347229 436.616577,355.760834 
	C438.617371,355.947418 440.893616,353.180206 443.044922,351.753174 
	C441.511383,349.886871 440.332367,347.345245 438.362061,346.310974 
	C435.334198,344.721558 431.682220,344.376556 428.440033,343.127319 
	C423.060883,341.054718 420.661682,337.176056 421.116730,331.974365 
	C421.550507,327.015778 424.915955,323.185822 430.218384,322.062256 
	C436.840057,320.659210 442.985107,321.774902 448.906677,326.046112 
	C447.721527,327.861572 446.768219,329.321930 446.223846,330.155792 
	C441.612061,329.317474 437.619598,328.134033 433.610474,328.074524 
	C431.857819,328.048553 430.071075,330.321899 428.299774,331.551056 
	C429.627289,333.381073 430.567566,335.993500 432.361420,336.881348 
	C436.338043,338.849579 440.743073,339.952179 445.295715,341.605103 
z"/>
<path fill="#F3F8FC" opacity="1.000000" stroke="none" 
	d="
M378.938416,339.962463 
	C378.938385,334.006653 378.938385,328.543976 378.938385,322.701050 
	C381.220215,322.701050 383.115997,322.701050 385.824371,322.701050 
	C385.824371,327.952393 385.819336,333.194763 385.826538,338.437103 
	C385.829956,340.930969 385.739105,343.432312 385.896301,345.917236 
	C386.270782,351.837463 389.755676,355.627594 394.973572,355.966888 
	C400.431000,356.321808 404.708221,352.896942 405.490295,346.864685 
	C406.020996,342.771057 405.770844,338.572693 405.815460,334.420624 
	C405.856354,330.618500 405.824188,326.815613 405.824188,322.666931 
	C408.072754,322.666931 409.955994,322.666931 411.757996,322.666931 
	C411.757996,332.061951 412.475311,341.375854 411.533661,350.518890 
	C410.764679,357.985413 404.041229,362.177704 395.824005,362.217010 
	C387.468140,362.256989 381.505402,358.257263 379.761108,350.842560 
	C378.974945,347.500702 379.182037,343.925140 378.938416,339.962463 
z"/>
<path fill="#F2F8FC" opacity="1.000000" stroke="none" 
	d="
M206.859650,358.236694 
	C197.025681,348.965057 196.521378,335.569977 205.405960,327.086090 
	C213.776764,319.092804 228.085144,319.617218 235.478531,328.478302 
	C234.350677,329.738068 233.183350,331.041931 232.070923,332.284454 
	C220.191208,326.827728 213.399628,327.299591 208.716049,333.766235 
	C204.978775,338.926300 205.456360,346.446625 209.830490,351.315277 
	C215.054214,357.129578 221.338104,357.196136 231.482101,351.177460 
	C232.527420,352.402283 233.687668,353.761749 234.836044,355.107330 
	C228.632538,363.424896 217.213043,364.767487 206.859650,358.236694 
z"/>
<path fill="#FEFEFE" opacity="1.000000" stroke="none" 
	d="
M355.121704,228.021332 
	C353.488403,232.449020 352.112000,236.562256 350.347504,240.501633 
	C342.856659,257.225769 325.896698,263.407166 309.961426,261.993103 
	C307.128082,261.741669 305.710724,260.742035 305.722870,257.354614 
	C305.860596,218.871170 305.859558,180.386887 305.731384,141.903381 
	C305.719025,138.205093 306.917542,137.039078 310.497345,136.767456 
	C334.362061,134.956665 350.509644,146.095871 356.051361,169.358185 
	C360.670624,188.748260 360.606293,208.279114 355.121704,228.021332 
z"/>
<path fill="#F9F9F9" opacity="1.000000" stroke="none" 
	d="
M208.068329,175.933472 
	C210.731354,183.115234 213.270569,189.927643 215.941650,197.093842 
	C206.207779,197.093842 196.942841,197.093842 186.972336,197.093842 
	C191.590317,184.194824 196.079010,171.656921 201.053207,157.762863 
	C203.701111,164.602753 205.822815,170.083435 208.068329,175.933472 
z"/>
<path fill="#1985C6" opacity="1.000000" stroke="none" 
	d="
M168.838974,346.178711 
	C173.178772,345.561615 177.490219,344.850677 181.581390,345.508820 
	C183.395111,345.800568 185.756317,348.738403 185.998138,350.705170 
	C186.170074,352.103424 183.403961,354.960632 181.613937,355.278381 
	C177.647552,355.982452 173.470123,355.497620 168.720993,355.497620 
	C168.720993,352.458344 168.720993,349.550079 168.838974,346.178711 
z"/>
<path fill="#1684C6" opacity="1.000000" stroke="none" 
	d="
M181.119339,329.333008 
	C182.284424,331.464050 183.969147,333.663940 183.543945,335.323120 
	C183.168259,336.789093 180.558456,338.302704 178.725021,338.634460 
	C175.718933,339.178375 172.542648,338.781708 169.056778,338.781708 
	C169.056778,335.486145 169.056778,332.466766 169.056778,329.166779 
	C172.957397,329.166779 176.839478,329.166779 181.119339,329.333008 
z"/>
<path fill="#1382C5" opacity="1.000000" stroke="none" 
	d="
M356.589783,344.080200 
	C353.528931,344.092865 350.916168,344.092865 348.009979,344.092865 
	C348.009979,338.943237 348.009979,334.226837 348.009979,328.590729 
	C351.887817,328.788605 355.799713,328.640381 359.579102,329.277924 
	C363.441742,329.929504 364.872345,332.984924 364.649628,336.689697 
	C364.367157,341.387909 361.820099,343.924408 356.589783,344.080200 
z"/>
<path fill="#238AC8" opacity="1.000000" stroke="none" 
	d="
M254.771103,339.774292 
	C256.031342,336.919769 257.144806,334.419037 258.781189,330.743958 
	C261.413330,336.529236 263.550629,341.226776 265.940399,346.479309 
	C261.055969,346.479309 256.764130,346.479309 251.881134,346.479309 
	C252.844498,344.248901 253.734421,342.188507 254.771103,339.774292 
z"/>
</svg>